<svg xmlns="http://www.w3.org/2000/svg" width="720" height="720" viewBox="0 0 720 720"><defs><linearGradient id="bg" x2="0" y2="1"><stop stop-color="#e2e8f1"/><stop offset="1" stop-color="#f5f6f9"/></linearGradient><linearGradient id="glass"><stop stop-color="#fff" stop-opacity=".9"/><stop offset=".5" stop-color="#e8edf3" stop-opacity=".4"/><stop offset="1" stop-color="#fff" stop-opacity=".9"/></linearGradient></defs><rect width="720" height="720" fill="url(#bg)"/><g transform="translate(85 0)"><ellipse cx="41" cy="560" rx="44" ry="10" fill="#566171" opacity=".10"/><rect x="4" y="191" width="74" height="80" rx="12" fill="#fff" opacity=".6" stroke="#d8dce3"/><rect x="30" y="226" width="22" height="54" rx="3" fill="#d9bc78"/><rect x="4" y="267" width="74" height="275" rx="15" fill="url(#glass)" stroke="#d9dde4"/><rect x="7" y="318" width="68" height="208" rx="4" fill="#ff168f" opacity=".9"/><path d="M15 283v231" stroke="#fff" stroke-width="5" opacity=".6"/><text x="41" y="360" text-anchor="middle" fill="white" font-family="Arial" font-size="9" letter-spacing="2">COLLECTION</text><text x="41" y="398" text-anchor="middle" fill="white" font-family="Georgia" font-size="17" font-style="italic">bloom</text><text x="41" y="456" text-anchor="middle" fill="white" font-family="Arial" font-weight="bold" font-size="16">body</text><text x="41" y="475" text-anchor="middle" fill="white" font-family="Arial" font-weight="bold" font-size="16">splash.</text><text x="41" y="508" text-anchor="middle" fill="white" font-family="Arial" font-size="8">200 ml</text></g><g transform="translate(198 0)"><ellipse cx="41" cy="560" rx="44" ry="10" fill="#566171" opacity=".10"/><rect x="4" y="191" width="74" height="80" rx="12" fill="#fff" opacity=".6" stroke="#d8dce3"/><rect x="30" y="226" width="22" height="54" rx="3" fill="#d9bc78"/><rect x="4" y="267" width="74" height="275" rx="15" fill="url(#glass)" stroke="#d9dde4"/><rect x="7" y="318" width="68" height="208" rx="4" fill="#632636" opacity=".9"/><path d="M15 283v231" stroke="#fff" stroke-width="5" opacity=".6"/><text x="41" y="360" text-anchor="middle" fill="white" font-family="Arial" font-size="9" letter-spacing="2">COLLECTION</text><text x="41" y="398" text-anchor="middle" fill="white" font-family="Georgia" font-size="17" font-style="italic">velvet</text><text x="41" y="456" text-anchor="middle" fill="white" font-family="Arial" font-weight="bold" font-size="16">body</text><text x="41" y="475" text-anchor="middle" fill="white" font-family="Arial" font-weight="bold" font-size="16">splash.</text><text x="41" y="508" text-anchor="middle" fill="white" font-family="Arial" font-size="8">200 ml</text></g><g transform="translate(311 0)"><ellipse cx="41" cy="560" rx="44" ry="10" fill="#566171" opacity=".10"/><rect x="4" y="191" width="74" height="80" rx="12" fill="#fff" opacity=".6" stroke="#d8dce3"/><rect x="30" y="226" width="22" height="54" rx="3" fill="#d9bc78"/><rect x="4" y="267" width="74" height="275" rx="15" fill="url(#glass)" stroke="#d9dde4"/><rect x="7" y="318" width="68" height="208" rx="4" fill="#ef735b" opacity=".9"/><path d="M15 283v231" stroke="#fff" stroke-width="5" opacity=".6"/><text x="41" y="360" text-anchor="middle" fill="white" font-family="Arial" font-size="9" letter-spacing="2">COLLECTION</text><text x="41" y="398" text-anchor="middle" fill="white" font-family="Georgia" font-size="17" font-style="italic">rouge</text><text x="41" y="456" text-anchor="middle" fill="white" font-family="Arial" font-weight="bold" font-size="16">body</text><text x="41" y="475" text-anchor="middle" fill="white" font-family="Arial" font-weight="bold" font-size="16">splash.</text><text x="41" y="508" text-anchor="middle" fill="white" font-family="Arial" font-size="8">200 ml</text></g><g transform="translate(424 0)"><ellipse cx="41" cy="560" rx="44" ry="10" fill="#566171" opacity=".10"/><rect x="4" y="191" width="74" height="80" rx="12" fill="#fff" opacity=".6" stroke="#d8dce3"/><rect x="30" y="226" width="22" height="54" rx="3" fill="#d9bc78"/><rect x="4" y="267" width="74" height="275" rx="15" fill="url(#glass)" stroke="#d9dde4"/><rect x="7" y="318" width="68" height="208" rx="4" fill="#d7b852" opacity=".9"/><path d="M15 283v231" stroke="#fff" stroke-width="5" opacity=".6"/><text x="41" y="360" text-anchor="middle" fill="white" font-family="Arial" font-size="9" letter-spacing="2">COLLECTION</text><text x="41" y="398" text-anchor="middle" fill="white" font-family="Georgia" font-size="17" font-style="italic">libre</text><text x="41" y="456" text-anchor="middle" fill="white" font-family="Arial" font-weight="bold" font-size="16">body</text><text x="41" y="475" text-anchor="middle" fill="white" font-family="Arial" font-weight="bold" font-size="16">splash.</text><text x="41" y="508" text-anchor="middle" fill="white" font-family="Arial" font-size="8">200 ml</text></g><g transform="translate(537 0)"><ellipse cx="41" cy="560" rx="44" ry="10" fill="#566171" opacity=".10"/><rect x="4" y="191" width="74" height="80" rx="12" fill="#fff" opacity=".6" stroke="#d8dce3"/><rect x="30" y="226" width="22" height="54" rx="3" fill="#d9bc78"/><rect x="4" y="267" width="74" height="275" rx="15" fill="url(#glass)" stroke="#d9dde4"/><rect x="7" y="318" width="68" height="208" rx="4" fill="#aaa4c3" opacity=".9"/><path d="M15 283v231" stroke="#fff" stroke-width="5" opacity=".6"/><text x="41" y="360" text-anchor="middle" fill="white" font-family="Arial" font-size="9" letter-spacing="2">COLLECTION</text><text x="41" y="398" text-anchor="middle" fill="white" font-family="Georgia" font-size="17" font-style="italic">star</text><text x="41" y="456" text-anchor="middle" fill="white" font-family="Arial" font-weight="bold" font-size="16">body</text><text x="41" y="475" text-anchor="middle" fill="white" font-family="Arial" font-weight="bold" font-size="16">splash.</text><text x="41" y="508" text-anchor="middle" fill="white" font-family="Arial" font-size="8">200 ml</text></g><text x="360" y="653" text-anchor="middle" font-family="Arial" font-size="10" letter-spacing="3" fill="#8f9baa">COLEÇÃO ILUSTRATIVA</text></svg>